<svg xmlns="http://www.w3.org/2000/svg" version="1.1" width="512" height="512">
<path d="M0 0 C1.24136719 0.41636719 2.48273438 0.83273438 3.76171875 1.26171875 C30.47782673 10.52529794 55.0105086 25.79561387 75.74609375 44.93359375 C77.7463006 46.76740558 79.79343238 48.51037367 81.875 50.25 C114.9867297 79.22276348 136.56773337 122.60379579 145.875 165 C146.06594238 165.86955322 146.25688477 166.73910645 146.45361328 167.63500977 C149.47591349 182.30946922 150.37854783 196.69024352 150.3125 211.625 C150.31034485 212.50495636 150.3081897 213.38491272 150.30596924 214.29153442 C150.25323111 227.73259352 149.75617533 240.80354146 147 254 C146.80132324 254.97855957 146.60264648 255.95711914 146.39794922 256.96533203 C138.74091708 293.75923554 123.06215169 328.68550801 98 357 C97.34515625 357.763125 96.6903125 358.52625 96.015625 359.3125 C56.40133558 404.58597363 3.1622123 431.04630679 -56.6875 436.75 C-58.79015145 436.86540657 -60.894921 436.94428445 -63 437 C-63.76779785 437.02046387 -64.5355957 437.04092773 -65.32666016 437.06201172 C-124.96164883 438.41760699 -182.69003344 418.58054541 -226.34375 377.4453125 C-228.9417153 374.99344995 -228.9417153 374.99344995 -231.640625 372.90625 C-233.78278555 371.17549776 -235.48147971 369.47400135 -237.25 367.375 C-239.13640753 365.15593566 -241.02619734 362.97228836 -243.02734375 360.85546875 C-276.37822624 325.45407992 -297.77308698 272.35900548 -298.23828125 223.84765625 C-298.24802979 222.99820435 -298.25777832 222.14875244 -298.26782227 221.27355957 C-298.44196734 202.16026708 -298.17649107 183.74651741 -294 165 C-293.71914551 163.71826904 -293.71914551 163.71826904 -293.43261719 162.41064453 C-292.17920722 156.86771497 -290.68378621 151.42681301 -289 146 C-288.63116699 144.80697266 -288.63116699 144.80697266 -288.25488281 143.58984375 C-275.13955414 102.05522699 -249.32713921 63.93432596 -215 37 C-214.04996094 36.22140625 -213.09992188 35.4428125 -212.12109375 34.640625 C-153.44135218 -12.42307577 -70.46070327 -24.42145841 0 0 Z M-216 125 C-216.06795409 137.83112595 -216.12291886 150.66213109 -216.15543652 163.49339676 C-216.1710485 169.45237194 -216.19220486 175.41121692 -216.22631836 181.37011719 C-216.25907146 187.1278485 -216.27688657 192.88545507 -216.28463173 198.6432724 C-216.2901467 200.83275056 -216.30091562 203.02222241 -216.31719017 205.21164703 C-216.41818322 219.36981802 -216.06981454 232.1266009 -209.5 245 C-209.15815674 245.67224609 -208.81631348 246.34449219 -208.46411133 247.03710938 C-200.30443709 262.28153071 -186.0936509 273.08266231 -170 279 C-153.3292153 283.81220577 -136.07820379 281.89214808 -120.62890625 274.35546875 C-104.18992969 265.26375013 -92.77116878 250.91936114 -87.375 232.9140625 C-85.68735114 226.43892238 -85.22011454 219.97269717 -84.8125 213.3125 C-84.6897168 211.52682617 -84.6897168 211.52682617 -84.56445312 209.70507812 C-84.36638041 206.80389541 -84.17841988 203.90244613 -84 201 C-83.51273438 201.98355469 -83.02546875 202.96710938 -82.5234375 203.98046875 C-79.09524204 210.73452547 -75.59600932 217.26887852 -71.25 223.48828125 C-70.6101416 224.40520752 -69.9702832 225.32213379 -69.31103516 226.2668457 C-68.04039383 228.06064515 -66.74888938 229.83988336 -65.43505859 231.60229492 C-64.84547363 232.4347876 -64.25588867 233.26728027 -63.6484375 234.125 C-62.84672119 235.21167969 -62.84672119 235.21167969 -62.02880859 236.3203125 C-59.62711679 242.57588185 -62.42901514 250.58489537 -63.85766602 256.94458008 C-64.04312988 257.78802979 -64.22859375 258.63147949 -64.41967773 259.50048828 C-64.81919871 261.3145677 -65.22085085 263.12817887 -65.62445259 264.94135475 C-66.2631913 267.81124959 -66.8960997 270.68237707 -67.52757263 273.55387878 C-68.86735573 279.64123812 -70.21455079 285.72694456 -71.5625 291.8125 C-73.12845256 298.88442734 -74.691354 305.95700664 -76.24748039 313.03110313 C-76.87112132 315.85922766 -77.49984393 318.68619122 -78.12879944 321.51313782 C-78.51001602 323.24283648 -78.8910048 324.97258537 -79.27172852 326.70239258 C-79.4478215 327.48738632 -79.62391449 328.27238007 -79.80534363 329.0811615 C-80.55291778 332.50006222 -81 335.48023628 -81 339 C-69.78 339 -58.56 339 -47 339 C-44.33207617 326.60783118 -44.33207617 326.60783118 -41.66796875 314.21484375 C-40.58272497 309.1623425 -39.49702866 304.1099414 -38.40869141 299.05810547 C-37.53158364 294.98661795 -36.65646064 290.91470852 -35.7827301 286.84249496 C-35.44852302 285.286566 -35.11359302 283.73079214 -34.77793884 282.17517471 C-34.30904639 280.00146289 -33.84269436 277.82722087 -33.37695312 275.65283203 C-33.11047974 274.41373077 -32.84400635 273.17462952 -32.56945801 271.89797974 C-31.93572853 269.16515485 -31.93572853 269.16515485 -32 267 C-30.99582031 267.53109375 -29.99164063 268.0621875 -28.95703125 268.609375 C-9.60578354 278.67021661 13.60480924 284.89955637 35.2578125 278.08984375 C55.26860883 270.13683495 69.83199767 257.47076554 78.74389648 237.55859375 C85.14839765 222.4810507 86.92356102 204.59941336 81 189 C72.85827904 169.49517256 59.3288103 156.25174268 40 148 C22.80651887 141.62857375 4.71165695 142.93860913 -11.98828125 150.36328125 C-30.977863 160.68317068 -41.40161196 176.97085049 -48 197 C-48 197.66 -48 198.32 -48 199 C-48.66 199 -49.32 199 -50 199 C-50.27908203 198.26837646 -50.55816406 197.53675293 -50.84570312 196.78295898 C-51.9098098 194.2174446 -53.09972722 191.88568757 -54.46875 189.47265625 C-66.16036336 168.61550359 -75.13506602 147.57997175 -83 125 C-94.22 125 -105.44 125 -117 125 C-117.0093457 127.8860498 -117.01869141 130.77209961 -117.02832031 133.74560547 C-117.06216055 143.3050546 -117.11774879 152.86428945 -117.18390274 162.42356682 C-117.22333044 168.21663382 -117.25554214 174.00954988 -117.27099609 179.80273438 C-117.28619347 185.39854734 -117.32069422 190.9939452 -117.36830902 196.58957291 C-117.38309098 198.71924344 -117.39103918 200.84897325 -117.39188385 202.97869492 C-117.39426482 205.97305774 -117.42143574 208.96628385 -117.45410156 211.96044922 C-117.44655602 213.26705254 -117.44655602 213.26705254 -117.43885803 214.60005188 C-117.58571761 223.36044114 -120.65597518 232.70216953 -127 239 C-136.03657212 245.65448253 -144.83041731 248.10299629 -156 247 C-165.4974006 244.89086981 -172.43844054 240.10671152 -177.875 232.0625 C-182.02133375 225.46605994 -182.29987877 217.91898642 -182.31884766 210.37109375 C-182.32889328 209.44333633 -182.3389389 208.51557892 -182.34928894 207.55970764 C-182.37997098 204.51897758 -182.39711425 201.47833495 -182.4140625 198.4375 C-182.4327862 196.31900284 -182.4523605 194.20051305 -182.4727478 192.08203125 C-182.52394791 186.52549593 -182.56363842 180.96893647 -182.60089111 175.41229248 C-182.64100689 169.73443691 -182.69206462 164.05668074 -182.7421875 158.37890625 C-182.83880328 147.25266725 -182.92224173 136.12638679 -183 125 C-193.89 125 -204.78 125 -216 125 Z " fill="#000000" transform="translate(335,45)"/>
<path d="M0 0 C9.03456156 4.91199463 15.41594409 11.99932255 19.44921875 21.46875 C21.18261652 32.63953563 19.70958076 41.46310088 14.19921875 51.34375 C7.9801993 59.16194589 1.5747843 63.90606148 -7.98828125 67.09375 C-24.13229555 68.24689388 -38.9204995 64.73887723 -51.67578125 54.21875 C-52.82046875 53.166875 -52.82046875 53.166875 -53.98828125 52.09375 C-53.55996024 49.88075813 -53.12535405 47.66891138 -52.671875 45.4609375 C-52.3081232 43.66920008 -51.94791355 41.87659597 -51.61376953 40.07910156 C-49.10977612 26.62127514 -45.75495345 11.62396012 -33.98828125 3.09375 C-24.17027083 -2.78616752 -10.83293419 -4.45697864 0 0 Z " fill="#000000" transform="translate(364.98828125,223.90625)"/>
</svg>